<?xml version="1.0" encoding="UTF-8" standalone="no"?><!DOCTYPE svg PUBLIC "-//W3C//DTD SVG 1.1//EN" "http://www.w3.org/Graphics/SVG/1.1/DTD/svg11.dtd"><svg width="100%" height="100%" viewBox="0 0 1452 1452" version="1.1" xmlns="http://www.w3.org/2000/svg" xmlns:xlink="http://www.w3.org/1999/xlink" xml:space="preserve" xmlns:serif="http://www.serif.com/" style="fill-rule:evenodd;clip-rule:evenodd;stroke-linejoin:round;stroke-miterlimit:2;"><path d="M751.035,986.457l0,11.338l-90.58,0c-6.333,0 -11.467,-5.134 -11.467,-11.467l-0,-113.257l17.008,-0l-0,102.121c-0,6.221 5.043,11.265 11.264,11.265l73.775,-0Zm-73.701,-113.386l17.008,-0l0,79.441c0,2.988 1.187,5.854 3.3,7.967c2.114,2.113 4.98,3.301 7.968,3.301l45.425,-0l0,11.338l-62.446,0c-6.216,0 -11.255,-5.039 -11.255,-11.254l0,-90.793Z" style="fill:#0080ff;"/></svg>