<?xml version="1.0" encoding="UTF-8" standalone="no"?><!DOCTYPE svg PUBLIC "-//W3C//DTD SVG 1.1//EN" "http://www.w3.org/Graphics/SVG/1.1/DTD/svg11.dtd"><svg width="100%" height="100%" viewBox="0 0 1452 1452" version="1.1" xmlns="http://www.w3.org/2000/svg" xmlns:xlink="http://www.w3.org/1999/xlink" xml:space="preserve" xmlns:serif="http://www.serif.com/" style="fill-rule:evenodd;clip-rule:evenodd;stroke-linejoin:round;stroke-miterlimit:2;"><path d="M373.197,967.503c0,-0 -16.423,16.424 -25.017,25.018c-3.27,3.271 -7.706,5.108 -12.331,5.108l-156.596,0c-4.65,0 -9.109,-1.847 -12.397,-5.135c-3.288,-3.288 -5.135,-7.747 -5.135,-12.397l-0,-511.556c-0,-3.977 1.58,-7.792 4.393,-10.605c2.812,-2.813 6.627,-4.393 10.605,-4.393l0.001,0c4.013,0 7.862,1.595 10.701,4.433c2.838,2.838 4.432,6.687 4.432,10.701l0,480.946c0,9.658 7.829,17.487 17.487,17.487l12.743,-0l0,0.393l151.114,-0Zm-150.993,-498.886c0,-8.325 6.749,-15.074 15.074,-15.074l0,0c8.35,0 15.119,6.769 15.119,15.119l-0,420.727c-0,4.657 1.85,9.123 5.143,12.416c3.293,3.293 7.759,5.143 12.416,5.143l163.793,0c-0,0 -16.424,16.424 -25.096,25.097c-3.346,3.346 -7.884,5.226 -12.615,5.226l-156.353,-0c-4.636,-0 -9.082,-1.842 -12.361,-5.12c-3.278,-3.279 -5.12,-7.725 -5.12,-12.361l0,-451.173Z" style="fill:#0080ff;"/></svg>