<?xml version="1.0" encoding="UTF-8" standalone="no"?><!DOCTYPE svg PUBLIC "-//W3C//DTD SVG 1.1//EN" "http://www.w3.org/Graphics/SVG/1.1/DTD/svg11.dtd"><svg width="100%" height="100%" viewBox="0 0 1452 1452" version="1.1" xmlns="http://www.w3.org/2000/svg" xmlns:xlink="http://www.w3.org/1999/xlink" xml:space="preserve" xmlns:serif="http://www.serif.com/" style="fill-rule:evenodd;clip-rule:evenodd;stroke-linecap:round;stroke-linejoin:round;stroke-miterlimit:1.5;"><g id="Notice"><path d="M401.71,644.679c-0,-150.952 103.243,-277.79 242.969,-313.753l0,-92.549c0,-21.121 8.391,-41.377 23.326,-56.312c14.934,-14.935 35.19,-23.325 56.311,-23.325l2.47,0c21.184,0 41.5,8.415 56.479,23.395c14.979,14.979 23.394,35.295 23.394,56.478l0,92.313c139.726,35.963 242.97,162.801 242.97,313.753l-0,485.94l-161.98,-0c0,89.459 -72.521,161.979 -161.98,161.979c-89.459,0 -161.979,-72.52 -161.979,-161.979l-161.98,-0l-0,-485.94Z" style="fill:none;stroke:#000;stroke-width:40px;"/><path d="M239.73,1130.62l971.879,-0" style="fill:none;stroke:#000;stroke-width:40px;"/></g></svg>
