<?xml version="1.0" encoding="UTF-8" standalone="no"?><!DOCTYPE svg PUBLIC "-//W3C//DTD SVG 1.1//EN" "http://www.w3.org/Graphics/SVG/1.1/DTD/svg11.dtd"><svg width="100%" height="100%" viewBox="0 0 1452 1452" version="1.1" xmlns="http://www.w3.org/2000/svg" xmlns:xlink="http://www.w3.org/1999/xlink" xml:space="preserve" xmlns:serif="http://www.serif.com/" style="fill-rule:evenodd;clip-rule:evenodd;stroke-linecap:round;stroke-linejoin:round;stroke-miterlimit:1.5;"><g id="League"><path d="M694.02,1229.6c0,0 -42.696,42.698 -57.66,57.664c-3.271,3.27 -7.706,5.108 -12.331,5.108l-353.114,-0c-4.649,-0 -9.109,-1.847 -12.397,-5.135c-3.288,-3.288 -5.135,-7.748 -5.135,-12.398l0,-1098.85c0,-4.583 1.821,-8.979 5.062,-12.221c3.242,-3.241 7.638,-5.062 12.221,-5.062l28.084,0c4.619,0 9.05,1.835 12.316,5.102c3.266,3.266 5.101,7.696 5.101,12.315l0,1035.17c0,4.638 1.843,9.086 5.122,12.365c3.279,3.28 7.727,5.122 12.365,5.122l45.502,0l-0,0.819l314.864,0Zm-314.612,-1053.44c-0,-9.644 7.818,-17.462 17.461,-17.462l27.942,0c9.669,0 17.507,7.838 17.507,17.507l-0,909.659c-0,9.698 7.861,17.559 17.558,17.559l360.31,-0c0,-0 -42.814,42.817 -57.952,57.955c-3.346,3.346 -7.883,5.226 -12.615,5.226l-352.73,-0c-4.637,-0 -9.083,-1.842 -12.361,-5.12c-3.279,-3.278 -5.12,-7.725 -5.12,-12.361l-0,-972.963Z" style="stroke:#000;stroke-width:0.24px;"/><path d="M1127.04,756.483c4.72,-0 9.247,1.875 12.585,5.213c12.004,12.004 41.478,41.478 53.38,53.38c3.272,3.272 5.109,7.708 5.109,12.335l0,268.941c0,4.647 -1.846,9.105 -5.133,12.391c-30.237,30.238 -183.817,183.818 -183.817,183.818l-283.425,-0c-0,-0 239.757,-239.758 278.241,-278.242c3.32,-3.319 5.184,-7.821 5.184,-12.514l0,-79.981c0,-4.587 -1.822,-8.986 -5.065,-12.229c-16.401,-16.4 -67.931,-67.931 -84.339,-84.339c-3.247,-3.247 -7.651,-5.071 -12.242,-5.071l-353.263,0c-9.646,0 -17.466,-7.82 -17.466,-17.466l-0,-154.16c-0,-4.595 1.825,-9.001 5.074,-12.25c3.249,-3.249 7.655,-5.074 12.249,-5.074l353.161,0c4.748,0 9.302,-1.886 12.66,-5.244c16.564,-16.564 67.638,-67.637 84.077,-84.076c3.3,-3.301 5.154,-7.777 5.154,-12.445l0,-79.942c0,-4.638 -1.842,-9.085 -5.122,-12.365c-19.681,-19.681 -89.353,-89.353 -89.353,-89.353l94.475,-188.95l1.1,-0c0,-0 152.95,152.95 182.825,182.825c3.218,3.217 5.025,7.581 5.025,12.132l0,270.099c0,4.686 -1.862,9.181 -5.175,12.495c-11.783,11.782 -40.49,40.489 -52.215,52.214c-3.275,3.276 -7.718,5.116 -12.35,5.116l-510.733,-0c-4.632,-0 -9.074,1.84 -12.349,5.115c-3.276,3.276 -5.116,7.718 -5.116,12.35l0,28.061c0,9.786 7.934,17.72 17.72,17.72l485.979,-0l0,-0.504l23.165,-0Zm-495.776,-408.673l-76.741,-0c-4.703,-0 -9.214,-1.868 -12.54,-5.194c-3.326,-3.326 -5.194,-7.837 -5.194,-12.541l-0,-153.529c-0,-9.768 7.918,-17.686 17.686,-17.686l171.264,-0l-94.475,188.95Zm188.95,-188.95l94.475,-0l-94.475,188.95l-94.475,-0l94.475,-188.95Zm283.409,1133.32l-62.238,-0l156.729,-156.981l0,62.49l-94.491,94.491Zm94.491,-62.868l0,45.497c0,9.593 -7.777,17.371 -17.371,17.371l-45.371,-0l62.742,-62.868Z"/></g></svg>