<?xml version="1.0" encoding="UTF-8" standalone="no"?><!DOCTYPE svg PUBLIC "-//W3C//DTD SVG 1.1//EN" "http://www.w3.org/Graphics/SVG/1.1/DTD/svg11.dtd"><svg width="100%" height="100%" viewBox="0 0 1452 1452" version="1.1" xmlns="http://www.w3.org/2000/svg" xmlns:xlink="http://www.w3.org/1999/xlink" xml:space="preserve" xmlns:serif="http://www.serif.com/" style="fill-rule:evenodd;clip-rule:evenodd;stroke-linecap:round;stroke-linejoin:round;stroke-miterlimit:1.5;"><g id="Q-A" serif:id="Q&amp;A"><path d="M1138.65,1061.57l77.021,0c20.403,0 39.97,-8.105 54.397,-22.532c14.427,-14.427 22.532,-33.994 22.532,-54.397l0,-308.745c0,-42.071 -34.105,-76.176 -76.176,-76.176l-462.817,-0c-20.371,-0 -39.907,8.092 -54.311,22.496c-14.404,14.404 -22.496,33.94 -22.496,54.31l0,307.786c0,20.49 8.14,40.141 22.629,54.63c14.488,14.488 34.139,22.628 54.629,22.628l230.642,0l153.95,153.95l0,-153.95Z" style="fill:none;stroke:#000;stroke-width:40px;"/><path d="M620.59,697.666l-153.95,-0l-153.95,153.95l0,-153.95l-77.02,-0c-20.403,-0 -39.971,-8.105 -54.398,-22.533c-14.427,-14.427 -22.532,-33.994 -22.532,-54.397l0,-308.745c0,-42.07 34.105,-76.176 76.176,-76.176l462.818,0c20.37,0 39.906,8.092 54.31,22.496c14.404,14.405 22.496,33.941 22.496,54.311l0,231.094l-77.143,-0c-20.371,-0 -39.907,8.092 -54.311,22.496c-14.404,14.404 -22.496,33.94 -22.496,54.31l0,77.144Z" style="fill:none;stroke:#000;stroke-width:40px;"/><g transform="matrix(346.625,0,0,346.625,605.669,583.451)"></g><text x="331.146px" y="583.451px" style="font-family:'ArialRoundedMTBold', 'Arial Rounded MT Bold', sans-serif;font-size:346.625px;">Q</text><g transform="matrix(346.625,0,0,346.625,1109.61,954.708)"></g><text x="860.299px" y="954.708px" style="font-family:'ArialRoundedMTBold', 'Arial Rounded MT Bold', sans-serif;font-size:346.625px;">A</text></g></svg>