<?xml version="1.0" encoding="UTF-8" standalone="no"?>
<!DOCTYPE svg PUBLIC "-//W3C//DTD SVG 1.1//EN" "http://www.w3.org/Graphics/SVG/1.1/DTD/svg11.dtd">
<svg width="100%" height="100%" viewBox="0 0 6047 6047" version="1.1" xmlns="http://www.w3.org/2000/svg" xmlns:xlink="http://www.w3.org/1999/xlink" xml:space="preserve" xmlns:serif="http://www.serif.com/" style="fill-rule:evenodd;clip-rule:evenodd;stroke-linecap:round;stroke-linejoin:round;stroke-miterlimit:1.5;">
    <g id="League" transform="matrix(2.08362,0,0,2.08362,-3276.82,-3276.29)">
        <g transform="matrix(0.426513,0,0,0.426536,1512.62,1511.93)">
            <path d="M3394.68,5906.5C3394.68,5906.5 3194.5,6106.68 3124.34,6176.84C3109.01,6192.17 3088.21,6200.79 3066.53,6200.79L1410.94,6200.79C1389.14,6200.79 1368.23,6192.13 1352.82,6176.71C1337.4,6161.3 1328.74,6140.39 1328.74,6118.59L1328.74,966.855C1328.74,945.365 1337.28,924.755 1352.47,909.559C1367.67,894.364 1388.28,885.827 1409.77,885.827L1541.44,885.827C1563.1,885.827 1583.87,894.43 1599.19,909.743C1614.5,925.057 1623.11,945.826 1623.11,967.483L1623.11,5820.67C1623.11,5842.42 1631.74,5863.27 1647.12,5878.65C1662.5,5894.02 1683.35,5902.66 1705.09,5902.66L1918.43,5902.66L1918.43,5906.5L3394.68,5906.5ZM1919.61,967.692C1919.61,922.479 1956.27,885.827 2001.48,885.827C2042.33,885.827 2091.61,885.827 2132.49,885.827C2177.82,885.827 2214.57,922.574 2214.57,967.903L2214.57,5232.64C2214.57,5278.11 2251.43,5314.96 2296.89,5314.96C2645.99,5314.96 3986.22,5314.96 3986.22,5314.96C3986.22,5314.96 3785.48,5515.7 3714.51,5586.67C3698.82,5602.36 3677.55,5611.17 3655.36,5611.17L2001.57,5611.17C1979.83,5611.17 1958.99,5602.54 1943.62,5587.17C1928.25,5571.8 1919.61,5550.95 1919.61,5529.22L1919.61,967.692Z" style="fill:rgb(0,128,255);stroke:rgb(0,128,255);stroke-width:1.13px;"/>
        </g>
        <g transform="matrix(0.426548,0,0,0.426548,1513.13,1511.54)">
            <path d="M5423.26,3689.2C5445.39,3689.2 5466.62,3697.99 5482.26,3713.64C5538.54,3769.91 5676.72,3908.09 5732.52,3963.89C5747.86,3979.23 5756.47,4000.03 5756.47,4021.72L5756.47,5282.55C5756.47,5304.34 5747.82,5325.24 5732.41,5340.65C5590.65,5482.41 4870.65,6202.41 4870.65,6202.41L3541.91,6202.41C3541.91,6202.41 4665.92,5078.39 4846.34,4897.97C4861.9,4882.41 4870.65,4861.31 4870.65,4839.3L4870.65,4464.34C4870.65,4442.84 4862.1,4422.22 4846.9,4407.01C4770.01,4330.12 4528.43,4088.54 4451.51,4011.62C4436.28,3996.4 4415.64,3987.84 4394.11,3987.84C4184.32,3987.84 3053.62,3987.84 2737.96,3987.84C2692.74,3987.84 2656.08,3951.18 2656.08,3905.96C2656.08,3737.02 2656.08,3351.6 2656.08,3183.23C2656.08,3161.69 2664.63,3141.04 2679.87,3125.81C2695.1,3110.57 2715.75,3102.02 2737.29,3102.02C3051.45,3102.02 4180.08,3102.02 4392.96,3102.02C4415.23,3102.02 4436.57,3093.17 4452.32,3077.43C4529.97,2999.78 4769.41,2760.34 4846.48,2683.27C4861.95,2667.8 4870.65,2646.81 4870.65,2624.93C4870.65,2542.32 4870.65,2332.54 4870.65,2250.15C4870.65,2228.41 4862.01,2207.55 4846.63,2192.18C4754.36,2099.91 4427.73,1773.28 4427.73,1773.28L4870.65,887.451L4875.8,887.451C4875.8,887.451 5592.85,1604.5 5732.91,1744.56C5748,1759.65 5756.47,1780.11 5756.47,1801.44L5756.47,3067.7C5756.47,3089.67 5747.74,3110.75 5732.21,3126.28C5676.97,3181.52 5542.39,3316.1 5487.42,3371.07C5472.06,3386.43 5451.23,3395.05 5429.52,3395.05L3035.13,3395.05C3013.41,3395.05 2992.59,3403.68 2977.23,3419.04C2961.88,3434.39 2953.25,3455.22 2953.25,3476.93L2953.25,3608.49C2953.25,3654.37 2990.44,3691.56 3036.32,3691.56C3455.09,3691.56 5314.66,3691.56 5314.66,3691.56L5314.66,3689.2L5423.26,3689.2ZM3098.99,1773.28L2739.22,1773.28C2717.17,1773.28 2696.02,1764.52 2680.43,1748.93C2664.84,1733.33 2656.08,1712.19 2656.08,1690.14C2656.08,1521.12 2656.08,1139.19 2656.08,970.368C2656.08,924.574 2693.2,887.451 2738.99,887.451L3541.91,887.451L3098.99,1773.28ZM3984.82,887.451L4427.73,887.451L3984.82,1773.28L3541.91,1773.28L3984.82,887.451ZM5313.48,6200.64L5021.7,6200.64L5756.47,5464.69L5756.47,5757.65L5313.48,6200.64ZM5756.47,5905.91L5756.47,6119.2C5756.47,6164.18 5720.01,6200.64 5675.03,6200.64C5587.98,6200.64 5462.33,6200.64 5462.33,6200.64L5756.47,5905.91Z" style="fill:rgb(0,128,255);stroke:rgb(0,128,255);stroke-width:1.13px;"/>
        </g>
    </g>
</svg>
