<?xml version="1.0" encoding="UTF-8" standalone="no"?><!DOCTYPE svg PUBLIC "-//W3C//DTD SVG 1.1//EN" "http://www.w3.org/Graphics/SVG/1.1/DTD/svg11.dtd"><svg width="100%" height="100%" viewBox="0 0 1452 1452" version="1.1" xmlns="http://www.w3.org/2000/svg" xmlns:xlink="http://www.w3.org/1999/xlink" xml:space="preserve" xmlns:serif="http://www.serif.com/" style="fill-rule:evenodd;clip-rule:evenodd;stroke-linecap:round;stroke-linejoin:round;stroke-miterlimit:1.5;"><g id="Data"><path d="M867.402,158.74l-0,277.787c-0,1.506 0.598,2.95 1.663,4.015c1.064,1.065 2.508,1.663 4.014,1.663l277.787,-0l-283.464,-283.465Z" style="fill:none;stroke:#000;stroke-width:40px;"/><path d="M1150.87,442.205l0,844.73c0,1.502 -0.597,2.943 -1.659,4.005c-1.062,1.062 -2.502,1.658 -4.004,1.658l-839.12,0c-1.488,0 -2.915,-0.591 -3.967,-1.643c-1.052,-1.052 -1.644,-2.479 -1.644,-3.967c0,-82.159 0,-1040.28 0,-1122.61c0,-3.112 2.523,-5.635 5.636,-5.635l561.294,0l283.464,283.465Z" style="fill:none;stroke:#000;stroke-width:40px;"/><path d="M725.669,583.937l0,283.465l283.465,-0c-0,156.553 -126.912,283.464 -283.465,283.464c-156.448,0 -283.464,-127.016 -283.464,-283.464c-0,-156.554 126.911,-283.465 283.464,-283.465Z" style="fill:none;stroke:#000;stroke-width:40px;"/><path d="M1065.83,810.709l-283.465,-0l0,-283.465c156.553,0 283.465,126.912 283.465,283.465Z" style="fill:none;stroke:#000;stroke-width:40px;"/></g></svg>