<?xml version="1.0" encoding="UTF-8" standalone="no"?><!DOCTYPE svg PUBLIC "-//W3C//DTD SVG 1.1//EN" "http://www.w3.org/Graphics/SVG/1.1/DTD/svg11.dtd"><svg width="100%" height="100%" viewBox="0 0 1452 1452" version="1.1" xmlns="http://www.w3.org/2000/svg" xmlns:xlink="http://www.w3.org/1999/xlink" xml:space="preserve" xmlns:serif="http://www.serif.com/" style="fill-rule:evenodd;clip-rule:evenodd;stroke-linejoin:round;stroke-miterlimit:2;"><g><path d="M812.146,725.586c1.336,0 2.54,0.805 3.051,2.038c0.511,1.234 0.228,2.654 -0.716,3.599c-2.845,2.845 -5.702,5.702 -5.702,5.702l0,102.047c0,-0 2.826,2.825 5.656,5.655c0.952,0.952 1.236,2.384 0.721,3.628c-0.515,1.244 -1.729,2.056 -3.076,2.056l-52.109,-0c-1.321,-0 -2.512,-0.796 -3.017,-2.017c-0.506,-1.22 -0.226,-2.625 0.708,-3.559c2.865,-2.865 5.763,-5.763 5.763,-5.763l-0,-102.047c-0,-0 -2.898,-2.898 -5.764,-5.764c-0.934,-0.934 -1.213,-2.339 -0.708,-3.559c0.505,-1.22 1.696,-2.016 3.017,-2.016c13.063,0 39.055,0 52.176,0Z" style="fill:#2c2c2c;"/><path d="M838.037,804.956c-6.213,0 -11.25,-5.037 -11.25,-11.25l-0,-56.916c-0,-2.971 1.18,-5.821 3.282,-7.922c2.101,-2.101 4.95,-3.282 7.922,-3.282l90.843,0l0,28.433c0,3.083 -2.5,5.583 -5.583,5.583l-79.564,-0c-1.475,-0 -2.89,0.586 -3.933,1.629c-1.043,1.043 -1.629,2.457 -1.629,3.932c0,0.053 0,0.106 0,0.159c0,3.103 2.516,5.618 5.619,5.618c14.641,0 54.188,0 73.778,0c3,0 5.877,1.192 7.999,3.314c2.121,2.121 3.313,4.999 3.313,7.999l0,56.8c0,2.986 -1.186,5.849 -3.297,7.96c-2.111,2.111 -4.975,3.298 -7.961,3.298l-90.789,-0l-0,-28.447c-0,-3.076 2.493,-5.569 5.569,-5.569l79.488,-0c3.121,-0 5.652,-2.531 5.652,-5.652l-0,-0.065c-0,-3.105 -2.517,-5.622 -5.622,-5.622c-14.66,0 -54.27,0 -73.837,0Z" style="fill:#2c2c2c;"/><path d="M648.988,725.586l79.361,0c6.017,0 11.787,2.39 16.041,6.645c4.255,4.254 6.645,10.024 6.645,16.041l0,79.486c-0,12.456 -10.097,22.553 -22.552,22.553l-79.495,-0l-0,-124.725Zm45.354,11.339l0,45.354l5.697,0c1.496,0 2.931,-0.594 3.989,-1.652c1.058,-1.058 1.653,-2.493 1.653,-3.99l-0,-34.008c-0,-3.151 -2.554,-5.704 -5.704,-5.704l-5.635,-0Zm0,56.693l0,45.354l5.663,-0c1.505,-0 2.949,-0.598 4.013,-1.662c1.065,-1.065 1.663,-2.509 1.663,-4.014l-0,-34.003c-0,-1.505 -0.598,-2.949 -1.662,-4.013c-1.065,-1.064 -2.508,-1.662 -4.013,-1.662l-5.664,-0Z" style="fill:#2c2c2c;"/><path d="M1087.57,804.956l0,45.355l-45.354,-0l-0,-124.725l45.354,0l0,45.354l5.762,0c3.08,0 5.577,-2.496 5.577,-5.577l-0,-39.777l45.354,0l0,45.312c0,6.286 -5.095,11.381 -11.381,11.381l-45.312,0l0,11.339l45.422,-0c2.989,-0 5.856,1.187 7.97,3.301c2.114,2.114 3.301,4.981 3.301,7.97l0,45.422l-45.354,-0l-0,-39.691c-0,-3.128 -2.536,-5.664 -5.664,-5.664l-5.675,0Z" style="fill:#2c2c2c;"/><path d="M1036.55,838.972c-0,6.262 -5.077,11.339 -11.339,11.339l-79.513,-0c-6.183,-0 -11.196,-5.013 -11.196,-11.196l0,-113.529l45.355,0l-0,107.773c-0,1.489 0.591,2.916 1.644,3.969c1.052,1.053 2.48,1.644 3.969,1.644l0.019,-0c3.152,-0 5.706,-2.555 5.706,-5.706c0,-23.002 0,-107.68 0,-107.68l45.355,0l-0,113.386Z" style="fill:#2c2c2c;"/><path d="M1181.9,986.457c0,6.262 -5.076,11.338 -11.338,11.338l-79.514,0c-6.183,0 -11.195,-5.012 -11.195,-11.195l-0,-113.529l45.354,-0l0,107.773c0,1.488 0.592,2.916 1.644,3.969c1.053,1.052 2.48,1.644 3.969,1.644l0.019,-0c3.152,-0 5.707,-2.555 5.707,-5.707c-0,-23.001 -0,-107.679 -0,-107.679l45.354,-0l0,113.386Z" style="fill:#2c2c2c;"/><path d="M1251.98,827.752c-0,12.459 -10.1,22.559 -22.559,22.559l-56.732,-0c-12.568,-0 -22.756,-10.189 -22.756,-22.757l-0,-79.221c-0,-12.563 10.184,-22.747 22.746,-22.747l56.711,0c5.991,0 11.737,2.38 15.973,6.617c4.237,4.236 6.617,9.982 6.617,15.973l-0,79.576Zm-51.063,-90.827c-3.109,-0 -5.63,2.52 -5.63,5.63l-0,90.889c-0,3.053 2.475,5.528 5.528,5.528l0.304,-0c3.041,-0 5.506,-2.465 5.506,-5.506c0,-17.701 0,-73.032 0,-90.909c0,-1.494 -0.593,-2.927 -1.649,-3.983c-1.056,-1.056 -2.489,-1.649 -3.982,-1.649l-0.077,-0Z" style="fill:#2c2c2c;"/><path d="M909.775,941.102l0,56.693l-45.354,0l-0,-102.213c-0,-12.432 10.079,-22.511 22.511,-22.511l56.82,-0c6.025,-0 11.803,2.393 16.063,6.653c4.26,4.26 6.653,10.038 6.653,16.063l0,102.008l-45.354,0l-0,-56.693l-11.339,0Zm5.625,-56.693c-1.492,0 -2.922,0.593 -3.977,1.648c-1.055,1.055 -1.648,2.486 -1.648,3.977l0,39.73l11.339,-0l-0,-39.771c-0,-3.084 -2.5,-5.584 -5.584,-5.584l-0.13,0Z" style="fill:#2c2c2c;"/><path d="M994.694,997.795c-5.982,0 -11.72,-2.376 -15.95,-6.606c-4.23,-4.231 -6.607,-9.968 -6.607,-15.951l0,-79.634c0,-5.976 2.374,-11.708 6.6,-15.933c4.226,-4.226 9.957,-6.6 15.933,-6.6l79.515,-0l-0,34.016l-51.065,-0c-1.492,-0 -2.924,0.593 -3.98,1.648c-1.055,1.056 -1.648,2.487 -1.648,3.98l-0,68.022c-0,1.517 0.602,2.972 1.675,4.044c1.073,1.073 2.527,1.676 4.044,1.676l0.001,-0c3.103,-0 5.618,-2.516 5.618,-5.619l0,-17.058l45.355,-0l-0,34.015l-79.491,0Z" style="fill:#2c2c2c;"/><path d="M858.752,986.429c-0,3.015 -1.198,5.906 -3.33,8.037c-2.131,2.132 -5.022,3.329 -8.037,3.329l-68.105,0c-12.468,0 -22.576,-10.107 -22.576,-22.575l0,-79.341c0,-12.597 10.212,-22.808 22.808,-22.808l68.048,-0c6.181,-0 11.192,5.011 11.192,11.192l-0,22.824l-56.693,-0l-0,11.338l56.693,0l-0,34.016l-56.693,-0l-0,11.339l56.693,-0l-0,22.649Z" style="fill:#2c2c2c;"/><path d="M1289.62,986.429c-0,3.015 -1.198,5.906 -3.329,8.037c-2.132,2.132 -5.023,3.329 -8.038,3.329l-68.105,0c-12.468,0 -22.576,-10.107 -22.576,-22.575l0,-79.341c0,-12.597 10.212,-22.808 22.808,-22.808l68.048,-0c6.181,-0 11.192,5.011 11.192,11.192l-0,22.824l-56.693,-0l-0,11.338l56.693,0l-0,34.016l-56.693,-0l-0,11.339l56.693,-0l-0,22.649Z" style="fill:#2c2c2c;"/></g></svg>