<?xml version="1.0" encoding="UTF-8" standalone="no"?><!DOCTYPE svg PUBLIC "-//W3C//DTD SVG 1.1//EN" "http://www.w3.org/Graphics/SVG/1.1/DTD/svg11.dtd"><svg width="100%" height="100%" viewBox="0 0 1452 1452" version="1.1" xmlns="http://www.w3.org/2000/svg" xmlns:xlink="http://www.w3.org/1999/xlink" xml:space="preserve" xmlns:serif="http://www.serif.com/" style="fill-rule:evenodd;clip-rule:evenodd;stroke-linejoin:round;stroke-miterlimit:2;"><path d="M578.325,740.514c3.889,-0 7.619,1.545 10.369,4.295c5.56,5.56 15.238,15.237 21.169,21.169c3.271,3.271 5.109,7.708 5.109,12.334l0,121.541c0,4.648 -1.846,9.105 -5.133,12.392c-19.18,19.18 -85.55,85.55 -85.55,85.55l-136.026,0c0,0 105.963,-105.963 130.842,-130.841c3.319,-3.319 5.184,-7.821 5.184,-12.515l-0,-30.847c-0,-4.587 -1.823,-8.986 -5.066,-12.229c-8.723,-8.723 -26.479,-26.479 -35.205,-35.205c-3.247,-3.247 -7.651,-5.071 -12.243,-5.071l-156.728,-0c-9.647,-0 -17.467,-7.82 -17.467,-17.467l-0,-55.893c-0,-9.568 7.756,-17.324 17.323,-17.324l156.627,0c4.749,0 9.303,-1.886 12.661,-5.244c8.756,-8.756 26.247,-26.247 34.943,-34.943c3.3,-3.3 5.155,-7.777 5.155,-12.444l-0,-30.809c-0,-4.638 -1.843,-9.086 -5.122,-12.365c-11.863,-11.863 -40.22,-40.22 -40.22,-40.22l45.342,-90.684l0.528,0c-0,0 66.164,66.165 85.13,85.131c3.217,3.217 5.025,7.581 5.025,12.132l0,122.126c0,4.687 -1.862,9.182 -5.176,12.496c-5.52,5.52 -14.21,14.21 -19.707,19.707c-3.275,3.276 -7.718,5.116 -12.35,5.116l-234.689,-0c-8.311,-0 -15.048,6.737 -15.048,15.048l-0,0c-0,8.453 6.852,15.305 15.305,15.305l226.437,0l-0,-0.241l8.581,-0Zm-235.403,-196.136l-27.608,-0c-9.794,-0 -17.734,-7.94 -17.734,-17.735l-0,-55.262c-0,-9.768 7.918,-17.687 17.686,-17.687l72.997,0l-45.341,90.684Zm90.683,-90.684l45.342,0l-45.342,90.684l-45.342,-0l45.342,-90.684Zm136.018,543.92l-29.87,-0l75.219,-75.34l0,29.991l-45.349,45.349Zm45.349,-30.172l0,12.801c0,9.594 -7.777,17.371 -17.371,17.371l-12.741,-0l30.112,-30.172Z" style="fill:#2c2c2c;"/></svg>